<!DOCTYPE svg PUBLIC "-//W3C//DTD SVG 1.1//EN" "http://www.w3.org/Graphics/SVG/1.1/DTD/svg11.dtd">
<!-- Uploaded to: SVG Repo, www.svgrepo.com, Transformed by: SVG Repo Mixer Tools -->
<svg fill="#ff4d4d" height="800px" width="800px" version="1.1" id="Layer_1" xmlns="http://www.w3.org/2000/svg" xmlns:xlink="http://www.w3.org/1999/xlink" viewBox="0 0 512 512" xml:space="preserve" stroke="#ff4d4d">
<g id="SVGRepo_bgCarrier" stroke-width="0"/>
<g id="SVGRepo_tracerCarrier" stroke-linecap="round" stroke-linejoin="round"/>
<g id="SVGRepo_iconCarrier"> <g> <g> <g> <path d="M381.554,182.691h-0.145c-5.3,0.012-10.596,0.618-15.764,1.804c-32.052,7.426-54.44,35.617-54.44,68.555v0.303 c0,18.791,7.318,36.46,20.609,49.752c9.382,9.38,21.139,15.891,33.989,18.828c5.138,1.181,10.441,1.78,15.762,1.78 c18.791,0,36.46-7.318,49.751-20.609c13.289-13.289,20.609-30.958,20.609-49.751v-0.447 C451.834,214.189,420.266,182.691,381.554,182.691z M362.278,298.065c-5.615-2.424-10.765-5.879-15.156-10.27 c-9.201-9.2-14.268-21.431-14.268-34.441v-0.303c0-19.814,11.699-37.14,29.302-44.715c5.701,14.283,8.584,29.384,8.584,45.017 C370.74,268.871,367.897,283.87,362.278,298.065z M416.006,287.796c-8.642,8.642-19.959,13.636-32.083,14.21 c5.616-15.532,8.465-31.835,8.465-48.653c0-16.931-2.887-33.335-8.576-48.956c25.76,1.184,46.401,22.508,46.462,48.534v0.422 h0.001C430.275,266.363,425.207,278.595,416.006,287.796z"/> <path d="M268.134,194.105c3.55,1.137,7.181,1.998,10.753,2.556c3.533,0.564,7.181,0.85,10.843,0.85 c14.768,0,28.947-4.567,41.004-13.205c7.899-5.655,14.415-12.734,19.365-21.028c2.713-4.533,4.926-9.425,6.578-14.543 c2.265-7.021,3.412-14.297,3.412-21.627c0-30.623-19.597-57.522-48.763-66.935h-0.001c-7.02-2.264-14.289-3.413-21.607-3.413 c-30.631,0-57.538,19.596-66.959,48.773c-1.623,5.043-2.683,10.276-3.153,15.578 C216.763,153.957,236.711,183.971,268.134,194.105z M289.717,78.407c5.057,0,10.09,0.797,14.96,2.368h-0.001 c20.194,6.517,33.763,25.138,33.763,46.332c0,4.319-0.583,8.614-1.724,12.801c-25.038-19.422-55.673-29.98-87.751-29.98 c-1.611,0-3.226,0.03-4.843,0.084C251.238,91.017,269.278,78.407,289.717,78.407z M326.312,159.294 c-2.422,2.754-5.148,5.238-8.183,7.412c-8.361,5.99-18.181,9.156-28.398,9.156c-2.522,0-5.023-0.195-7.468-0.586 c-2.506-0.391-5.038-0.993-7.504-1.783c-18.883-6.089-31.778-22.564-33.555-41.67 C272.412,129.857,302.581,139.733,326.312,159.294z"/> <path d="M141.704,261.04c-9.547,0-18.822,1.895-27.554,5.631c-4.883,2.084-9.544,4.735-13.853,7.879 c-31.341,22.86-38.245,66.962-15.391,98.308c6.637,9.103,15.449,16.551,25.483,21.535c9.701,4.818,20.562,7.365,31.466,7.365 c14.926,0,29.224-4.671,41.343-13.504c4.285-3.12,8.213-6.72,11.667-10.695c11.124-12.783,17.252-29.196,17.252-46.215 c0-14.97-4.671-29.285-13.509-41.395C185.408,271.847,164.135,261.04,141.704,261.04z M141.801,380.11 c-7.525,0-15.057-1.766-21.78-5.105c-7.032-3.493-12.96-8.505-17.621-14.9c-15.373-21.085-11.295-50.502,8.847-66.674 c9.327,31.85,29.762,59.907,57.282,78.652C160.563,377.338,151.387,380.11,141.801,380.11z M183.702,356.174 c-25.934-16.545-44.945-42.648-52.652-72.298c3.474-0.78,7.033-1.189,10.652-1.189c15.539,0,30.273,7.483,39.411,20.017 c0.001,0.001,0.002,0.002,0.003,0.004c6.116,8.38,9.35,18.283,9.35,28.636C190.468,340.151,188.104,348.716,183.702,356.174z"/> <path d="M100.248,232.514c4.312,3.125,8.975,5.763,13.876,7.849c2.017,0.853,4.056,1.611,6.075,2.255 c6.921,2.196,14.094,3.311,21.32,3.311c10.874,0,21.762-2.56,31.497-7.407c10.042-5.015,18.859-12.498,25.496-21.639 c8.78-12.091,13.42-26.362,13.42-41.27c0-17.077-6.163-33.528-17.356-46.321c-3.467-3.975-7.399-7.566-11.684-10.674 c-12.101-8.778-26.373-13.418-41.276-13.418c-22.494,0-43.802,10.856-56.995,29.04 C61.839,165.639,68.847,209.723,100.248,232.514z M183.459,150.688c4.439,7.475,6.825,16.076,6.825,24.923 c0,10.308-3.213,20.18-9.29,28.55c-4.669,6.43-10.607,11.474-17.64,14.985c-6.743,3.358-14.292,5.132-21.835,5.132 c-3.548,0-7.078-0.396-10.54-1.165C138.613,193.443,157.564,167.292,183.459,150.688z M102.143,146.953 c9.134-12.589,23.891-20.104,39.474-20.104c9.526,0,18.683,2.752,26.633,7.968c-27.477,18.808-47.846,46.916-57.098,78.792 C90.967,197.485,86.819,168.076,102.143,146.953z"/> <path d="M350.306,343.2c-12.628-21.033-35.727-34.099-60.285-34.099c-7.388,0-14.714,1.166-21.774,3.465 c-31.386,10.217-51.258,40.28-48.327,73.101c0.468,5.262,1.537,10.5,3.185,15.578c4.689,14.405,13.662,26.663,25.953,35.453 c12.05,8.605,26.207,13.154,40.942,13.154c3.628,0,7.296-0.289,10.869-0.853c3.638-0.564,7.305-1.442,10.902-2.612 c29.074-9.457,48.609-36.337,48.609-66.885c0-7.393-1.165-14.721-3.464-21.781C355.259,352.623,353.034,347.736,350.306,343.2z M274.951,333.151c4.893-1.593,9.963-2.401,15.071-2.401c14.023,0,27.348,6.165,36.494,16.492 c-21.784,18.048-48.982,27.888-77.551,27.888c-2.491,0-4.985-0.076-7.471-0.225C243.224,355.794,256.078,339.295,274.951,333.151 z M305.076,425.799c-2.495,0.812-5.026,1.419-7.554,1.81c-2.491,0.393-5.023,0.593-7.522,0.593 c-10.197,0-20.003-3.154-28.354-9.119c-7.88-5.635-13.786-13.344-17.193-22.382c1.504,0.047,3.008,0.077,4.511,0.077 c32.209,0,62.936-10.63,88.013-30.184c1.161,4.216,1.755,8.547,1.755,12.908C338.732,400.646,325.207,419.251,305.076,425.799z"/> <path d="M292.262,253.353c0-23.875-19.424-43.298-43.298-43.298s-43.298,19.424-43.298,43.298s19.424,43.298,43.298,43.298 S292.262,277.229,292.262,253.353z M227.315,253.353c0-11.937,9.712-21.649,21.649-21.649c11.937,0,21.649,9.712,21.649,21.649 s-9.712,21.649-21.649,21.649C237.027,275.002,227.315,265.291,227.315,253.353z"/> <path d="M501.175,485.962h-6.62c-34.584,0-62.961-27.029-65.151-61.07c44.238-46.474,68.524-107.14,68.524-171.538 c0-66.5-25.897-129.021-72.919-176.044c-47.023-47.023-109.544-72.92-176.045-72.92c-66.502,0-129.021,25.897-176.045,72.92 C25.897,124.333,0,186.853,0,253.353s25.897,129.022,72.919,176.045c47.023,47.023,109.543,72.92,176.045,72.92 c59.866,0,116.5-20.997,161.513-59.492c9.828,37.241,43.793,64.784,84.078,64.784h6.62c5.977,0,10.825-4.846,10.825-10.825 S507.153,485.962,501.175,485.962z M248.964,480.668c-125.341,0-227.315-101.972-227.315-227.315 c0-125.341,101.974-227.315,227.315-227.315s227.315,101.974,227.315,227.315S374.306,480.668,248.964,480.668z"/> </g> </g> </g> </g>
</svg>